<svg width="164" height="20" viewBox="0 0 164 20" fill="none" xmlns="http://www.w3.org/2000/svg">
<path fill-rule="evenodd" clip-rule="evenodd" d="M43.4331 12.6564V19.3133H40.3335L40.2148 17.182C39.7798 17.9365 39.1915 18.5441 38.45 19.0046C37.7183 19.4652 36.8482 19.6955 35.8398 19.6955C34.7423 19.6955 33.714 19.4946 32.755 19.0928C31.8058 18.6813 30.9654 18.1129 30.2338 17.3878C29.512 16.6627 28.9435 15.8297 28.5282 14.889C28.1229 13.9385 27.9202 12.9194 27.9202 11.8317C27.9202 10.7832 28.1179 9.7984 28.5134 8.87729C28.9089 7.94637 29.4576 7.13305 30.1596 6.43731C30.8616 5.74158 31.6723 5.19773 32.5918 4.80577C33.5212 4.40401 34.5149 4.20312 35.5728 4.20312C36.6505 4.20312 37.9326 4.30812 39.4139 5.05129C40.8953 5.79445 43.4331 7.80429 43.4331 12.6564ZM38.2128 16.0793C37.5701 16.5202 36.8038 16.7407 35.914 16.7407C35.0835 16.7407 34.3073 16.5349 33.5856 16.1234C32.8737 15.702 32.2854 15.1386 31.8207 14.433C31.3659 13.7275 31.1089 12.9485 31.0495 12.096C31.0001 11.1846 31.1682 10.3566 31.5538 9.61189C31.9394 8.86716 32.4832 8.27432 33.1852 7.83336C33.897 7.3924 34.6929 7.17192 35.5729 7.17192C36.4133 7.17192 37.1647 7.3826 37.8272 7.80396C38.4896 8.21552 39.0186 8.77407 39.414 9.4796C39.8194 10.1851 40.0518 10.9691 40.1111 11.8314C40.1605 12.7329 40.0172 13.556 39.681 14.3008C39.3547 15.0455 38.8653 15.6383 38.2128 16.0793Z" fill="#283C5B"/>
<path fill-rule="evenodd" clip-rule="evenodd" d="M128.624 12.6564V19.3133H125.524L125.406 17.182C124.971 17.9365 124.382 18.5441 123.641 19.0046C122.909 19.4652 122.039 19.6955 121.031 19.6955C119.933 19.6955 118.905 19.4946 117.946 19.0928C116.997 18.6813 116.156 18.1129 115.425 17.3878C114.703 16.6627 114.134 15.8297 113.719 14.889C113.314 13.9385 113.111 12.9194 113.111 11.8317C113.111 10.7832 113.309 9.7984 113.704 8.87729C114.1 7.94637 114.649 7.13305 115.351 6.43731C116.053 5.74158 116.863 5.19773 117.783 4.80577C118.712 4.40401 119.706 4.20312 120.764 4.20312C121.841 4.20312 123.123 4.30812 124.605 5.05129C126.086 5.79445 128.624 7.80429 128.624 12.6564ZM123.404 16.0793C122.761 16.5202 121.995 16.7407 121.105 16.7407C120.274 16.7407 119.498 16.5349 118.777 16.1234C118.065 15.702 117.476 15.1386 117.012 14.433C116.557 13.7275 116.3 12.9485 116.24 12.096C116.191 11.1846 116.359 10.3566 116.745 9.61189C117.13 8.86716 117.674 8.27432 118.376 7.83336C119.088 7.3924 119.884 7.17192 120.764 7.17192C121.604 7.17192 122.356 7.3826 123.018 7.80396C123.681 8.21552 124.21 8.77407 124.605 9.4796C125.01 10.1851 125.243 10.9691 125.302 11.8314C125.351 12.7329 125.208 13.556 124.872 14.3008C124.546 15.0455 124.056 15.6383 123.404 16.0793Z" fill="#283C5B"/>
<path fill-rule="evenodd" clip-rule="evenodd" d="M104.157 19.768C105.485 19.812 106.739 19.4959 107.921 18.8198C109.205 18.0848 110.157 17.0645 110.778 15.7588C110.999 15.2872 111.171 14.8087 111.295 14.3231L108.044 14.3228C107.991 14.4421 107.933 14.5592 107.869 14.6741C107.526 15.3004 107.029 15.7997 106.378 16.172C105.757 16.5163 105.114 16.6972 104.451 16.7147C103.796 16.7273 103.17 16.5934 102.573 16.3128C101.979 16.0189 101.456 15.611 101.004 15.0891L110.906 9.42278C110.414 8.32376 109.765 7.39439 108.957 6.63466C108.144 5.86644 107.241 5.29674 106.248 4.92555C105.251 4.54587 104.225 4.39178 103.171 4.46329C102.111 4.5263 101.089 4.83953 100.105 5.40298C99.2228 5.90763 98.4936 6.55686 97.9171 7.35065C97.3406 8.14445 96.9373 9.02013 96.7074 9.97769C96.4811 10.9219 96.4383 11.8968 96.5789 12.9026C96.7146 13.8999 97.0544 14.8653 97.5981 15.7988C98.315 17.0293 99.2568 17.9896 100.424 18.6796C101.594 19.3563 102.839 19.7191 104.157 19.768ZM107.03 8.94216L99.7347 13.1166C99.4851 12.4334 99.3839 11.7501 99.4311 11.0669C99.482 10.3702 99.6802 9.7306 100.026 9.1481C100.38 8.56069 100.861 8.09306 101.469 7.74519C102.086 7.39242 102.737 7.21756 103.424 7.22061C104.114 7.21027 104.777 7.35745 105.411 7.66216C106.049 7.95348 106.588 8.38015 107.03 8.94216Z" fill="#283C5B"/>
<path fill-rule="evenodd" clip-rule="evenodd" d="M7.65933 19.768C8.98645 19.812 10.2408 19.4959 11.4224 18.8198C12.7068 18.0848 13.6594 17.0645 14.2802 15.7588C14.5012 15.2872 14.6733 14.8087 14.7965 14.3231L11.5458 14.3228C11.4931 14.4421 11.4347 14.5592 11.3707 14.6741C11.0277 15.3004 10.5308 15.7997 9.88005 16.172C9.25861 16.5163 8.6162 16.6972 7.95282 16.7147C7.298 16.7273 6.67195 16.5934 6.07468 16.3128C5.48103 16.0189 4.95799 15.611 4.50557 15.0891L14.4081 9.42278C13.9163 8.32376 13.2665 7.39439 12.4585 6.63466C11.6457 5.86644 10.743 5.29674 9.75043 4.92555C8.75292 4.54587 7.72699 4.39178 6.67264 4.46329C5.61335 4.5263 4.59136 4.83953 3.60667 5.40298C2.72473 5.90763 1.99551 6.55686 1.41901 7.35065C0.842511 8.14445 0.439294 9.02013 0.209361 9.97769C-0.0169526 10.9219 -0.059787 11.8968 0.0808575 12.9026C0.216559 13.8999 0.556304 14.8653 1.1001 15.7988C1.81691 17.0293 2.75878 17.9896 3.9257 18.6796C5.09623 19.3563 6.34077 19.7191 7.65933 19.768ZM10.5319 8.94216L3.23663 13.1166C2.98706 12.4334 2.88588 11.7501 2.93309 11.0669C2.98392 10.3702 3.18217 9.7306 3.52784 9.1481C3.88207 8.56069 4.36316 8.09306 4.97109 7.74519C5.58759 7.39242 6.23923 7.21756 6.92601 7.22061C7.6164 7.21027 8.27868 7.35745 8.91285 7.66216C9.55064 7.95348 10.0903 8.38015 10.5319 8.94216Z" fill="#283C5B"/>
<path d="M60.0497 19.314H56.4903L52.842 13.0818L50.4542 15.9039V19.314H47.3843V0H50.4542V11.1563L55.9861 4.61537H60.02L54.9628 10.5977L60.0497 19.314Z" fill="#283C5B"/>
<path d="M70.6708 7.67268H67.5564L67.5415 19.314H64.4568L64.4716 7.67268H62.1135V4.61537H64.4716L64.4568 0H67.5415L67.5564 4.61537H70.6708V7.67268Z" fill="#283C5B"/>
<path d="M94.6178 11.6266V19.314H91.5331V11.6854C91.5331 10.8525 91.3551 10.0931 90.9991 9.40712C90.6531 8.72118 90.1884 8.17733 89.6051 7.77557C89.0217 7.37381 88.3741 7.17293 87.6622 7.17293C86.891 7.17293 86.2335 7.37381 85.6898 7.77557C85.146 8.17733 84.7258 8.72118 84.4291 9.40712C84.1424 10.0931 83.9991 10.8525 83.9991 11.6854V19.314H80.8994V0H83.9842V6.33511C84.3995 5.54138 84.9433 4.99263 85.6156 4.68886C86.2978 4.37529 87.0789 4.2185 87.9588 4.2185C89.2936 4.2185 90.4553 4.55657 91.4441 5.23271C92.4328 5.90885 93.204 6.81036 93.7576 7.93726C94.3113 9.05435 94.5981 10.2841 94.6178 11.6266Z" fill="#283C5B"/>
<path d="M132.585 19.314V0H135.655V19.314H132.585Z" fill="#283C5B"/>
<path d="M147.442 7.67268H144.328L144.313 19.314H141.228L141.243 7.67268H138.885V4.61537H141.243L141.228 0H144.313L144.328 4.61537H147.442V7.67268Z" fill="#283C5B"/>
<path d="M163.75 11.6266V19.314H160.665V11.6854C160.665 10.8525 160.487 10.0931 160.131 9.40712C159.785 8.72118 159.32 8.17733 158.737 7.77557C158.154 7.37381 157.506 7.17293 156.794 7.17293C156.023 7.17293 155.366 7.37381 154.822 7.77557C154.278 8.17733 153.858 8.72118 153.561 9.40712C153.275 10.0931 153.131 10.8525 153.131 11.6854V19.314H150.032V0H153.116V6.33511C153.532 5.54138 154.075 4.99263 154.748 4.68886C155.43 4.37529 156.211 4.2185 157.091 4.2185C158.426 4.2185 159.587 4.55657 160.576 5.23271C161.565 5.90885 162.336 6.81036 162.89 7.93726C163.443 9.05435 163.73 10.2841 163.75 11.6266Z" fill="#283C5B"/>
<path fill-rule="evenodd" clip-rule="evenodd" d="M16.153 6.17803C15.846 6.52977 15.8815 7.06442 16.2324 7.3722L21.2108 11.7395L26.1892 7.3722C26.54 7.06442 26.5756 6.52977 26.2686 6.17803L25.1569 4.90425C24.8499 4.5525 24.3166 4.51686 23.9658 4.82464L21.2108 7.24142L18.4558 4.82464C18.105 4.51686 17.5717 4.5525 17.2647 4.90425L16.153 6.17803ZM16.153 18.4371C15.846 18.0853 15.8815 17.5507 16.2324 17.2429L21.2108 12.8756L26.1891 17.2429C26.54 17.5507 26.5755 18.0853 26.2686 18.4371L25.1568 19.7108C24.8499 20.0626 24.3166 20.0982 23.9657 19.7905L21.2108 17.3737L18.4558 19.7905C18.1049 20.0982 17.5717 20.0626 17.2647 19.7108L16.153 18.4371Z" fill="#00A4AF"/>
</svg>
